HIERARCHY
ROOT joint_0
{
	OFFSET 0.000000 0.000000 0.000000
	CHANNELS 6 Xposition Yposition Zposition Zrotation Yrotation Xrotation 
	JOINT joint_1
	{
		OFFSET 6.579712 -2.778931 100.531982
		CHANNELS 3 Zrotation Yrotation Xrotation
		JOINT joint_2
		{
			OFFSET -3.313232 -1.302856 91.974976
			CHANNELS 3 Zrotation Yrotation Xrotation
			JOINT joint_3
			{
				OFFSET -3.421509 -1.641846 91.864014
				CHANNELS 3 Zrotation Yrotation Xrotation
				JOINT joint_4
				{
					OFFSET 7.697388 -4.642578 123.278931
					CHANNELS 3 Zrotation Yrotation Xrotation
					JOINT joint_5
					{
						OFFSET 24.842529 -5.941528 79.695068
						CHANNELS 3 Zrotation Yrotation Xrotation
						End Site
						{
							OFFSET 0.000000 0.000000 0.000000
						}
					}
				}
				JOINT joint_6
				{
					OFFSET -0.159668 -29.112976 68.364014
					CHANNELS 3 Zrotation Yrotation Xrotation
					JOINT joint_7
					{
						OFFSET -18.356079 -115.987061 -20.069092
						CHANNELS 3 Zrotation Yrotation Xrotation
						JOINT joint_8
						{
							OFFSET 31.719482 -11.733276 -267.170898
							CHANNELS 3 Zrotation Yrotation Xrotation
							JOINT joint_9
							{
								OFFSET 29.329956 -5.879517 -234.654053
								CHANNELS 3 Zrotation Yrotation Xrotation
								End Site
								{
									OFFSET 0.000000 0.000000 0.000000
								}
							}
						}
					}
				}
				JOINT joint_10
				{
					OFFSET 8.802979 23.897949 69.798950
					CHANNELS 3 Zrotation Yrotation Xrotation
					JOINT joint_11
					{
						OFFSET 21.159058 115.524292 -19.981934
						CHANNELS 3 Zrotation Yrotation Xrotation
						JOINT joint_12
						{
							OFFSET 18.809204 5.403442 -268.593018
							CHANNELS 3 Zrotation Yrotation Xrotation
							JOINT joint_13
							{
								OFFSET 20.807861 0.421265 -235.639038
								CHANNELS 3 Zrotation Yrotation Xrotation
								End Site
								{
									OFFSET 0.000000 0.000000 0.000000
								}
							}
						}
					}
				}
			}
		}
	}
	JOINT joint_14
	{
		OFFSET -9.713379 -79.513916 -99.348022
		CHANNELS 3 Zrotation Yrotation Xrotation
		JOINT joint_15
		{
			OFFSET -40.607788 -6.518372 -502.938019
			CHANNELS 3 Zrotation Yrotation Xrotation
			JOINT joint_16
			{
				OFFSET -19.807617 -7.437378 -399.590012
				CHANNELS 3 Zrotation Yrotation Xrotation
				JOINT joint_17
				{
					OFFSET 171.701660 -44.751282 -77.782000
					CHANNELS 3 Zrotation Yrotation Xrotation
					End Site
					{
						OFFSET 0.000000 0.000000 0.000000
					}
				}
			}
		}
	}
	JOINT joint_18
	{
		OFFSET 17.854858 79.618652 -98.128052
		CHANNELS 3 Zrotation Yrotation Xrotation
		JOINT joint_19
		{
			OFFSET -24.848877 16.861816 -503.722992
			CHANNELS 3 Zrotation Yrotation Xrotation
			JOINT joint_20
			{
				OFFSET -30.162476 14.470093 -398.750008
				CHANNELS 3 Zrotation Yrotation Xrotation
				JOINT joint_21
				{
					OFFSET 176.096680 -10.987549 -80.021000
					CHANNELS 3 Zrotation Yrotation Xrotation
					End Site
					{
						OFFSET 0.000000 0.000000 0.000000
					}
				}
			}
		}
	}
}
MOTION
Frames: 10
Frame Time: 0.016667
-1123.806641 945.259583 1099.167969 0.113974 -1.016909 -0.279090 -0.070027 -0.849979 -0.262568 -0.044950 0.128668 0.042489 -0.053534 -0.172257 -0.043996 0.508402 2.840268 -0.950972 0.000000 0.000000 0.000000 -0.972386 1.992554 -1.134410 -0.118987 1.666683 -0.010460 -0.127065 -2.200207 -1.480351 0.000000 0.000000 0.000000 1.009333 0.875492 1.593164 -0.000630 1.203695 -1.155324 0.055185 -2.472320 0.701467 0.000000 0.000000 0.000000 1.757410 1.226758 0.242965 1.742835 1.223084 0.429408 1.871460 -3.953489 -0.182596 0.000000 0.000000 0.000000 -1.999418 1.616256 0.083951 -2.038583 0.072689 -0.200310 -2.001927 -0.440600 -0.936871 0.000000 0.000000 0.000000 
-1123.843384 945.274963 1099.171997 0.118582 -1.024972 -0.278392 -0.073850 -0.855955 -0.253430 -0.049076 0.130502 0.040036 -0.057577 -0.173890 -0.042588 0.512301 2.846235 -0.962063 0.000000 0.000000 0.000000 -0.959968 1.995152 -1.141013 -0.119343 1.670562 -0.011263 -0.126597 -2.202799 -1.476999 0.000000 0.000000 0.000000 1.019911 0.877815 1.593496 -0.001041 1.205417 -1.162093 0.055553 -2.469491 0.705625 0.000000 0.000000 0.000000 1.755808 1.230939 0.242608 1.741272 1.229527 0.428262 1.870084 -3.955989 -0.183870 0.000000 0.000000 0.000000 -2.000533 1.620724 0.081672 -2.039888 0.076004 -0.199681 -2.003227 -0.439570 -0.937397 0.000000 0.000000 0.000000 
-1123.877197 945.290588 1099.177002 0.125250 -1.033219 -0.277173 -0.078390 -0.863221 -0.244010 -0.053917 0.131185 0.037834 -0.062331 -0.174758 -0.041720 0.515648 2.851033 -0.971659 0.000000 0.000000 0.000000 -0.946273 1.998651 -1.147609 -0.119758 1.675571 -0.012037 -0.126015 -2.205972 -1.472831 0.000000 0.000000 0.000000 1.031545 0.879846 1.595694 -0.001616 1.207407 -1.171226 0.056043 -2.465116 0.711124 0.000000 0.000000 0.000000 1.753744 1.235846 0.242255 1.739330 1.235764 0.426235 1.868286 -3.958407 -0.185313 0.000000 0.000000 0.000000 -2.002230 1.625018 0.078771 -2.041781 0.080043 -0.198934 -2.005112 -0.438504 -0.938186 0.000000 0.000000 0.000000 
-1123.907593 945.303528 1099.181030 0.133473 -1.040447 -0.276028 -0.083820 -0.873443 -0.234987 -0.059602 0.134029 0.034467 -0.067935 -0.177871 -0.040117 0.517973 2.855082 -0.978143 0.000000 0.000000 0.000000 -0.928674 2.002899 -1.155267 -0.119825 1.681305 -0.009841 -0.125747 -2.206215 -1.470522 0.000000 0.000000 0.000000 1.045141 0.883435 1.597583 -0.002010 1.209973 -1.176981 0.056186 -2.460745 0.712686 0.000000 0.000000 0.000000 1.751154 1.240490 0.242124 1.736904 1.240858 0.424061 1.865976 -3.960540 -0.186913 0.000000 0.000000 0.000000 -2.004417 1.628663 0.076117 -2.044158 0.083183 -0.198175 -2.007434 -0.437484 -0.939177 0.000000 0.000000 0.000000 
-1123.933594 945.311890 1099.183960 0.143361 -1.046550 -0.275048 -0.088741 -0.885091 -0.228268 -0.064633 0.135347 0.032802 -0.072911 -0.179532 -0.038904 0.518671 2.855495 -0.980292 0.000000 0.000000 0.000000 -0.910016 2.008025 -1.164088 -0.119313 1.687071 -0.002923 -0.126093 -2.202923 -1.472308 0.000000 0.000000 0.000000 1.056160 0.887714 1.598516 -0.002092 1.212491 -1.176939 0.055766 -2.457429 0.707885 0.000000 0.000000 0.000000 1.748093 1.244850 0.242112 1.733989 1.244833 0.422349 1.863175 -3.962238 -0.188623 0.000000 0.000000 0.000000 -2.006958 1.631755 0.074274 -2.046841 0.084980 -0.198111 -2.010028 -0.435564 -0.940235 0.000000 0.000000 0.000000 
-1123.955566 945.319702 1099.186035 0.154415 -1.051877 -0.274156 -0.093819 -0.899476 -0.221273 -0.069785 0.138852 0.030439 -0.078073 -0.183085 -0.038196 0.518145 2.853887 -0.978993 0.000000 0.000000 0.000000 -0.889742 2.013890 -1.173699 -0.118439 1.693205 0.006908 -0.126750 -2.196661 -1.475938 0.000000 0.000000 0.000000 1.067089 0.893151 1.599521 -0.002013 1.215717 -1.174124 0.055074 -2.454379 0.699993 0.000000 0.000000 0.000000 1.744841 1.249364 0.242101 1.730907 1.247330 0.420620 1.860155 -3.963120 -0.190220 0.000000 0.000000 0.000000 -2.009811 1.634504 0.072443 -2.049864 0.085977 -0.197766 -2.012900 -0.433630 -0.941419 0.000000 0.000000 0.000000 
-1123.976318 945.326599 1099.187988 0.164265 -1.056478 -0.273471 -0.098408 -0.915130 -0.215744 -0.074358 0.141389 0.029006 -0.082648 -0.185442 -0.037372 0.517208 2.850414 -0.976820 0.000000 0.000000 0.000000 -0.870685 2.018686 -1.183126 -0.117691 1.698341 0.015291 -0.127445 -2.190090 -1.479818 0.000000 0.000000 0.000000 1.076649 0.898968 1.600456 -0.001963 1.219747 -1.172441 0.054583 -2.450693 0.694346 0.000000 0.000000 0.000000 1.741846 1.253712 0.241913 1.728010 1.248395 0.419792 1.857318 -3.963565 -0.191620 0.000000 0.000000 0.000000 -2.012386 1.637112 0.071177 -2.052588 0.085893 -0.197904 -2.015455 -0.430801 -0.942402 0.000000 0.000000 0.000000 
-1123.995239 945.333740 1099.187988 0.172197 -1.060829 -0.273361 -0.102886 -0.931233 -0.210844 -0.078780 0.143766 0.027927 -0.087112 -0.189455 -0.036509 0.516401 2.849050 -0.974545 0.000000 0.000000 0.000000 -0.851928 2.022899 -1.193249 -0.117088 1.702966 0.022340 -0.128074 -2.184367 -1.483384 0.000000 0.000000 0.000000 1.085860 0.906254 1.602066 -0.002017 1.225997 -1.173952 0.054562 -2.445629 0.693959 0.000000 0.000000 0.000000 1.739429 1.258954 0.241806 1.725665 1.246694 0.419979 1.855014 -3.963959 -0.192766 0.000000 0.000000 0.000000 -2.014346 1.640209 0.071230 -2.054606 0.084948 -0.199491 -2.017426 -0.428625 -0.943161 0.000000 0.000000 0.000000 
-1124.012085 945.342041 1099.188965 0.178939 -1.063905 -0.273896 -0.107604 -0.950128 -0.204574 -0.083513 0.146208 0.025201 -0.091810 -0.192119 -0.035898 0.514746 2.845191 -0.970116 0.000000 0.000000 0.000000 -0.831163 2.025740 -1.202351 -0.116698 1.707081 0.027368 -0.128644 -2.178472 -1.486439 0.000000 0.000000 0.000000 1.095752 0.914129 1.604297 -0.002108 1.233085 -1.176872 0.054780 -2.440127 0.696254 0.000000 0.000000 0.000000 1.737552 1.263347 0.241963 1.723843 1.243827 0.420672 1.853194 -3.963427 -0.193452 0.000000 0.000000 0.000000 -2.015938 1.642619 0.072019 -2.056223 0.082972 -0.201220 -2.018964 -0.425796 -0.943681 0.000000 0.000000 0.000000 
-1124.030884 945.348145 1099.188965 0.184439 -1.067787 -0.274059 -0.111155 -0.968570 -0.200856 -0.086892 0.150730 0.024452 -0.095288 -0.196716 -0.034975 0.513360 2.842556 -0.966280 0.000000 0.000000 0.000000 -0.814987 2.028548 -1.212268 -0.116391 1.710435 0.031256 -0.129182 -2.172088 -1.489166 0.000000 0.000000 0.000000 1.102128 0.921595 1.606889 -0.002274 1.240693 -1.181266 0.054995 -2.435606 0.698531 0.000000 0.000000 0.000000 1.735800 1.268297 0.241933 1.722144 1.241172 0.421272 1.851521 -3.963803 -0.194308 0.000000 0.000000 0.000000 -2.017199 1.645811 0.072257 -2.057586 0.081180 -0.202393 -2.020225 -0.423146 -0.944088 0.000000 0.000000 0.000000 
